<svg width="401" height="29" viewBox="0 0 401 29" fill="none" xmlns="http://www.w3.org/2000/svg">
<path d="M398.383 10.0062H399.871V23.0382C399.871 26.0622 397.831 27.8142 394.783 27.8142C392.983 27.8142 391.591 27.3822 390.415 26.6622L391.039 25.5102C392.119 26.0622 393.127 26.3982 394.663 26.3982C396.919 26.3982 398.167 25.2462 398.167 22.9662V20.9022C397.255 21.9822 396.007 22.7262 394.375 22.7262C391.831 22.7262 389.575 21.0462 389.575 16.8462V15.7182C389.575 11.6382 391.999 9.79015 394.567 9.79015C396.175 9.79015 397.327 10.3902 398.239 11.4462L398.383 10.0062ZM394.591 21.3102C396.055 21.3102 397.255 20.5422 398.095 19.3182V13.0062C397.327 11.8542 396.319 11.2302 394.831 11.2302C392.959 11.2302 391.351 12.3102 391.351 15.6702V16.8222C391.351 20.2062 392.791 21.3102 394.591 21.3102Z" fill="black"/>
<path d="M381.981 9.79015C384.357 9.79015 386.037 11.2782 386.037 14.0142V22.7262H384.261V14.1582C384.261 12.1182 383.253 11.2302 381.597 11.2302C380.013 11.2302 378.837 12.0702 377.973 13.4622V22.7262H376.197V10.0782H377.709L377.853 11.7582C378.789 10.5342 380.109 9.79015 381.981 9.79015Z" fill="black"/>
<path d="M370.511 7.60615C369.887 7.60615 369.383 7.10215 369.383 6.45415C369.383 5.83015 369.887 5.32615 370.511 5.32615C371.159 5.32615 371.663 5.83015 371.663 6.45415C371.663 7.10215 371.159 7.60615 370.511 7.60615ZM367.727 10.0782H371.495V22.7262H369.719V11.4702H367.727V10.0782Z" fill="black"/>
<path d="M360.804 9.79015C363.18 9.79015 364.86 11.2782 364.86 14.0142V22.7262H363.084V14.1582C363.084 12.1182 362.076 11.2302 360.42 11.2302C358.836 11.2302 357.66 12.0702 356.796 13.4862V22.7262H355.02V4.96615H356.796V11.6862C357.708 10.4622 359.028 9.79015 360.804 9.79015Z" fill="black"/>
<path d="M351.525 21.4062L351.741 22.7262C351.237 22.8702 350.517 23.0142 349.797 23.0142C347.709 23.0142 346.533 22.0542 346.533 20.0622V11.4702H344.517V10.0782H346.581L346.725 7.07815H348.309V10.0782H351.357V11.4702H348.309V19.9902C348.309 21.0462 348.933 21.5982 350.109 21.5982C350.685 21.5982 351.141 21.5022 351.525 21.4062Z" fill="black"/>
<path d="M333.842 27.8142C333.29 27.8142 332.714 27.6942 332.402 27.5502L332.666 26.3262C333.074 26.4222 333.41 26.4702 333.866 26.4702C334.97 26.4702 335.642 25.9902 336.194 24.2862L336.698 22.7262H335.882L331.49 10.0782H333.362L337.13 21.4062L340.61 10.0782H342.386L337.754 24.4062C336.842 27.1662 335.594 27.8142 333.842 27.8142Z" fill="black"/>
<path d="M324.751 9.79015C327.127 9.79015 328.807 11.2782 328.807 14.0142V22.7262H327.031V14.1582C327.031 12.1182 326.023 11.2302 324.367 11.2302C322.783 11.2302 321.607 12.0702 320.743 13.4622V22.7262H318.967V10.0782H320.479L320.623 11.7582C321.559 10.5342 322.879 9.79015 324.751 9.79015Z" fill="black"/>
<path d="M314.099 22.7262L312.371 17.5422H305.819L304.187 22.7262H302.339L307.835 5.92615H310.307L315.971 22.7262H314.099ZM309.059 7.24615L306.299 16.0542H311.891L309.059 7.24615Z" fill="black"/>
<path d="M294.268 16.9422H285.532V16.9902C285.532 19.9662 287.044 21.5982 289.636 21.5982C291.124 21.5982 292.132 21.0462 293.092 20.4222L293.788 21.5742C292.804 22.3422 291.292 23.0142 289.54 23.0142C285.94 23.0142 283.804 20.4462 283.804 16.9902V15.7422C283.804 12.4302 285.844 9.79015 289.18 9.79015C292.396 9.79015 294.34 12.0222 294.34 15.8142C294.34 16.2222 294.316 16.6542 294.268 16.9422ZM289.18 11.2062C286.876 11.2062 285.556 12.9342 285.532 15.6462H292.732V15.4782C292.732 12.8382 291.46 11.2062 289.18 11.2062Z" fill="black"/>
<path d="M280.554 22.7262L275.874 16.2222L274.218 18.0222V22.7262H272.442V4.96615H274.218V15.8862L279.618 10.0782H281.706L277.05 15.0702L282.594 22.7262H280.554Z" fill="black"/>
<path d="M263.498 9.79015C266.546 9.79015 267.986 11.4462 267.986 14.0382V22.7262H266.522L266.402 21.2382C265.274 22.4862 263.906 23.0142 262.25 23.0142C260.09 23.0142 258.17 21.6942 258.17 19.4862V18.6942C258.17 16.5102 260.138 15.0462 263.282 15.0462H266.21V13.9902C266.21 12.1422 265.298 11.2302 263.378 11.2302C261.89 11.2302 260.786 11.6142 259.562 12.2382L258.986 11.0382C260.162 10.3422 261.674 9.79015 263.498 9.79015ZM262.538 21.6222C264.002 21.6222 265.298 21.0462 266.21 19.8462V16.3182H263.402C261.218 16.3182 259.946 17.1822 259.946 18.8382V19.3662C259.946 20.7342 260.954 21.6222 262.538 21.6222Z" fill="black"/>
<path d="M251.881 5.92615H254.137V22.7262H252.409V8.63815L247.609 20.3022L247.633 20.3262H245.593L240.769 8.44615V22.7262H239.113V5.92615H241.489L246.673 18.8142L251.905 5.95015L251.881 5.92615Z" fill="black"/>
<path d="M0.538536 22.7316L19.9163 10.678H29.9686C30.2781 10.678 30.5561 10.9259 30.5561 11.2662C30.5561 11.5442 30.4321 11.6681 30.2781 11.7605L20.7598 17.4657C20.1416 17.8368 19.9252 18.5789 19.9252 19.1356L19.9155 22.7316H32.0097V1.83296C32.0097 1.4303 31.7002 1.09078 31.2367 1.09078H19.6999L0.369995 13.091V22.7316L0.538536 22.7316Z" fill="black"/>
<path d="M159.399 22.7304H176.819V18.051H164.917V14.1285H174.493V9.4224H164.917V5.77046H176.819V1.09108H159.399V22.7304Z" fill="black"/>
<path d="M49.9024 1.09068L41.5987 22.7308H47.3063L48.7559 18.6729H58.0255L59.4515 22.7308H65.3479L56.9356 1.09068H49.9024ZM50.3983 14.0746L53.4287 5.59176L56.4098 14.0746H50.3983Z" fill="black"/>
<path d="M89.0162 5.77024H95.9951V22.7302H101.513V5.77024H108.464V1.09093H89.0162V5.77024Z" fill="black"/>
<path d="M80.9826 14.4533C80.9826 17.2666 79.251 18.4026 76.3033 18.4026C73.4357 18.4026 71.5696 17.2123 71.5696 14.4533V1.09102H66.0516V15.0756C66.0516 21.3236 71.6231 23.2716 76.3033 23.2716C80.9559 23.2716 86.5006 21.3236 86.5006 15.0756V1.09102H80.9826V14.4533Z" fill="black"/>
<path d="M222.37 1.09074H215.797L207.925 9.8815V1.09074H202.407L202.435 22.7301H207.925V14.5074L215.391 22.7301H222.37L212.308 12.0457L222.37 1.09074Z" fill="black"/>
<path d="M146.415 1.09093H136.299V22.7302H146.415C154.178 22.7302 156.315 19.8359 156.315 11.7485C156.315 4.14727 154.259 1.09093 146.415 1.09093ZM146.199 18.0508H141.817V5.7703H146.199C149.661 5.7703 150.689 6.71747 150.689 11.7485C150.689 16.3468 149.526 18.0508 146.199 18.0508Z" fill="black"/>
<path d="M193.508 9.99003L188.477 9.42203C185.529 9.09711 184.799 8.36704 184.799 7.36637C184.799 6.25708 186.313 5.2564 189.262 5.2564C192.102 5.2564 193.589 6.31139 193.86 7.90682H199.27C198.999 3.33605 195.158 0.496033 189.559 0.496033C182.905 0.496033 179.55 3.14645 179.55 7.82582C179.55 11.6398 181.769 13.4257 186.367 13.9126L191.479 14.4531C193.427 14.6694 194.319 15.427 194.319 16.401C194.319 17.5102 193.021 18.511 189.884 18.511C186.259 18.511 184.799 17.5913 184.555 15.7519H179.253C179.497 20.7287 182.743 23.2713 189.694 23.2713C196.051 23.2713 199.594 20.4856 199.594 16.2924C199.594 12.6405 197.484 10.4503 193.508 9.99003Z" fill="black"/>
<path d="M121.313 0.496094C113.442 0.496094 109.358 5.33752 109.358 11.8562C109.358 18.4024 113.442 23.2714 121.313 23.2714C129.212 23.2714 133.296 18.4024 133.296 11.8562C133.296 5.33752 129.212 0.496094 121.313 0.496094ZM121.313 18.4024C117.229 18.4024 114.983 15.9141 114.983 11.8562C114.983 7.88017 117.229 5.36428 121.313 5.36428C125.425 5.36428 127.643 7.88018 127.643 11.8562C127.643 15.9141 125.425 18.4024 121.313 18.4024Z" fill="black"/>
</svg>
